<?xml version="1.0" standalone="no"?><svg xmlns="http://www.w3.org/2000/svg" viewBox="0 0 1440 320"><path fill="#444444" fill-opacity="1" d="M0,160L24,138.7C48,117,96,75,144,80C192,85,240,139,288,138.7C336,139,384,85,432,58.7C480,32,528,32,576,42.7C624,53,672,75,720,106.7C768,139,816,181,864,192C912,203,960,181,1008,154.7C1056,128,1104,96,1152,90.7C1200,85,1248,107,1296,106.7C1344,107,1392,85,1416,74.7L1440,64L1440,0L1416,0C1392,0,1344,0,1296,0C1248,0,1200,0,1152,0C1104,0,1056,0,1008,0C960,0,912,0,864,0C816,0,768,0,720,0C672,0,624,0,576,0C528,0,480,0,432,0C384,0,336,0,288,0C240,0,192,0,144,0C96,0,48,0,24,0L0,0Z"></path></svg>